<svg xmlns="http://www.w3.org/2000/svg" width="140" height="40" viewBox="0 0 140 40">
    <path data-name="패스 1" d="M157.144 36.517h10.739v29.155h16.764V75.2h-27.5z" transform="translate(-157.144 -35.857)" style="fill:#fff"/>
    <path data-name="패스 2" d="M205.3 36.517h10.717v23.045a21.394 21.394 0 0 1-.961 6.474 14.286 14.286 0 0 1-3.012 5.325 11.979 11.979 0 0 1-4.3 3.2 19.666 19.666 0 0 1-7.515 1.292 42.516 42.516 0 0 1-5.536-.394 13.412 13.412 0 0 1-5.016-1.57 12.916 12.916 0 0 1-3.687-3.335 12.653 12.653 0 0 1-2.29-4.454 25.466 25.466 0 0 1-1-6.538V36.517h10.717v23.594a7.2 7.2 0 0 0 1.576 4.943 6.27 6.27 0 0 0 8.726.026 7.179 7.179 0 0 0 1.577-4.969z" transform="translate(-151.503 -35.857)" style="fill:#fff"/>
    <path data-name="패스 3" d="m214.281 62.575 10.219-.713a9.292 9.292 0 0 0 1.353 4.222 5.454 5.454 0 0 0 4.741 2.347 4.9 4.9 0 0 0 3.545-1.2 3.754 3.754 0 0 0 1.244-2.784 3.711 3.711 0 0 0-1.184-2.691q-1.187-1.188-5.5-2.243-7.068-1.767-10.077-4.7a9.933 9.933 0 0 1-3.035-7.467 10.96 10.96 0 0 1 1.553-5.634 10.606 10.606 0 0 1 4.67-4.169 19.837 19.837 0 0 1 8.547-1.517q6.663 0 10.159 2.758t4.163 8.773l-10.125.66a6.327 6.327 0 0 0-1.7-3.8 5.079 5.079 0 0 0-3.568-1.187 4 4 0 0 0-2.821.883 2.832 2.832 0 0 0-.95 2.15 2.236 2.236 0 0 0 .784 1.663 8.268 8.268 0 0 0 3.6 1.425A41.8 41.8 0 0 1 240 52.773a11.072 11.072 0 0 1 4.434 4.287 11.831 11.831 0 0 1 1.387 5.726 13.282 13.282 0 0 1-1.849 6.86 11.951 11.951 0 0 1-5.17 4.763 19 19 0 0 1-8.368 1.622q-8.87 0-12.283-3.8a15.8 15.8 0 0 1-3.87-9.656z" transform="translate(-144.533 -36.031)" style="fill:#fff"/>
    <path data-name="패스 4" d="M244.581 36.517h10.741v13.536h11.736V36.517h10.787V75.2h-10.787V59.551h-11.736V75.2h-10.741z" transform="translate(-137.845 -35.857)" style="fill:#fff"/>
</svg>
